<svg xmlns="http://www.w3.org/2000/svg" xml:space="preserve" width="100" height="100" viewBox="0 0 100 42.111"><path d="M0 42.111S20.453 1.535 38.681.044c19.704-1.612 33.686 42.067 33.686 42.067H0z"/><path d="M52.643 3.255s7.532 7.364 12.356 16.355c5.165 9.636 8.261 18.967 8.261 18.967s1.366-4.256 5.415-14.09c4.05-9.834 6.854-15.42 6.854-15.42s-8.034.607-16.271-.465c-7.119-.927-16.615-5.347-16.615-5.347zM74.009 42.111l5.58-14.66s2.651 4.007 4.188 6.658c1.535 2.653 4.088 8.002 4.088 8.002H74.009zM89.329 42.111s-1.224-3.533-4.017-9.957c-2.793-6.422-3.998-8.936-3.998-8.936l1.765-4.605L100 42.111H89.329z"/></svg>